# xmcd CD database file
#
# Track frame offsets:
#	150
#	31125
#	45000
#	69675
#	80250
#	95325
#	121350
#	138375
#	162900
#	180675
#	200550
#	215175
#	230700
#	247875
#	263700
#	277725
#	309600
#
# Disc length: 4586 seconds
#
# Revision: 0
# Processed by: cddbd v1.5.2PL0 Copyright (c) Steve Scherf et al.
# Submitted via: CDex 1.51
#
DISCID=e811e811
DTITLE=Aer Pepper - Mucho Calor
DYEAR=1957
DGENRE=Jazz
TTITLE0=Mucho Calor
TTITLE1=Autumn Leaves
TTITLE2=Mambo de la Pinta
TTITLE3=I'll Remember April
TTITLE4=Vaya Hombre Vaya
TTITLE5=I Love You
TTITLE6=Mambo Jumbo
TTITLE7=Old Devil Moon
TTITLE8=Pernod
TTITLE9=That Old Black Magic
TTITLE10=Didi
TTITLE11=Powder Puff
TTITLE12=Bunny
TTITLE13=Diabolo's Dance
TTITLE14=Diabolo's Dance alt take
TTITLE15=Popo
TTITLE16=Popo alt take
EXTD=YEAR: 1957
EXTT0=
EXTT1=
EXTT2=
EXTT3=
EXTT4=
EXTT5=
EXTT6=
EXTT7=
EXTT8=
EXTT9=
EXTT10=
EXTT11=
EXTT12=
EXTT13=
EXTT14=
EXTT15=
EXTT16=
PLAYORDER=
